<?xml version="1.0" encoding="UTF-8" standalone="no"?>
<!DOCTYPE svg PUBLIC "-//W3C//DTD SVG 1.1//EN" "http://www.w3.org/Graphics/SVG/1.1/DTD/svg11.dtd">
<!-- Created with Vectornator (http://vectornator.io/) -->
<svg height="100%" stroke-miterlimit="10" style="fill-rule:nonzero;clip-rule:evenodd;stroke-linecap:round;stroke-linejoin:round;" version="1.1" viewBox="0 0 844 390" width="100%" xml:space="preserve" xmlns="http://www.w3.org/2000/svg" xmlns:xlink="http://www.w3.org/1999/xlink">
<defs/>
<g id="Слой-1">
<g opacity="1">
<g opacity="1">
<path d="M738.141 113.812C737.443 113.876 735.223 114.098 733.226 114.288C720.256 115.493 707.635 119.108 698.344 124.245C687.436 130.302 679.667 138.419 674.086 149.613C670.978 155.86 669.488 159.887 667.776 166.768C665.239 176.852 664.097 187.253 664.097 200.318C664.097 219.883 667.078 234.121 674.118 248.422C679.921 260.187 687.88 268.431 699.644 274.805C708.555 279.625 720.034 283.24 731.957 284.984C740.9 286.284 757.357 286.475 766.236 285.365C779.174 283.779 791.065 279.942 799.722 274.615C809.362 268.622 817.353 259.965 822.585 249.754C827.373 240.4 830.735 227.874 832.035 214.619C832.764 207.072 832.51 191.471 831.559 184.019C828.578 160.87 821.856 145.047 810.091 133.536C800.483 124.15 788.941 118.886 769.851 115.207C764.682 114.224 759.894 113.876 749.874 113.78C744.134 113.717 738.838 113.749 738.141 113.812ZM756.85 142.637C770.231 144.508 779.967 151.008 785.357 161.726C789.797 170.574 791.858 180.721 792.397 196.544C792.936 212.209 790.368 227.303 785.516 237.07C779.554 249.025 770.295 255.462 756.374 257.301C751.966 257.904 743.595 257.808 739.409 257.143C720.763 254.162 710.743 244.078 706.43 223.974C702.847 207.072 703.672 181.45 708.238 167.751C710.363 161.346 712.677 157.35 716.514 153.482C720.256 149.708 724.664 146.886 729.737 145.015C734.399 143.334 737.253 142.732 744.483 142.034C746.607 141.812 753.457 142.161 756.85 142.637Z" fill="#2b457e" fill-rule="nonzero" opacity="1" stroke="none"/>
<path d="M58.5899 114.922C43.0836 115.683 30.9069 121.042 23.5818 130.27C22.7573 131.316 21.1718 133.631 20.0937 135.439C13.1808 146.854 10.3903 159.094 11.9759 171.239C12.8637 177.804 14.2907 182.338 17.5569 188.87C20.2205 194.198 22.7256 197.559 27.2919 201.903C31.8899 206.248 39.6589 209.863 48.1573 211.575C56.2117 213.224 57.0678 213.256 84.2752 213.509C111.641 213.763 113.005 213.826 118.205 215.412C124.928 217.473 130.223 223.339 131.524 230.125C133.172 238.687 130.604 246.139 124.547 250.452C121.471 252.64 118.459 253.623 111.546 254.606C108.121 255.113 103.428 255.177 63.7587 255.272L19.7449 255.399L19.7449 270.302L19.7449 285.174L68.3567 285.174C96.4837 285.174 119.22 285.048 122.328 284.857C134.441 284.16 140.593 282.955 146.681 280.133C159.936 274.044 169.259 260.409 171.986 243.158C172.239 241.731 172.398 237.99 172.398 234.597C172.366 224.354 170.591 216.553 166.056 207.009C160.729 195.752 149.218 187.856 133.997 185.002C126.862 183.638 121.345 183.385 100.13 183.385C79.9309 183.385 73.684 183.163 68.325 182.243C56.7824 180.309 51.7722 174.696 51.7722 163.692C51.7722 153.989 55.6092 148.154 63.3782 146.125C68.7372 144.73 80.8505 144.381 124.959 144.381L162.758 144.381L162.758 129.477L162.758 114.573L113.068 114.637C85.7022 114.637 61.2219 114.795 58.5899 114.922Z" fill="#2b457e" fill-rule="nonzero" opacity="1" stroke="none"/>
<path d="M388.852 115.429C388.757 160.173 388.947 219.851 389.169 224.449C390.057 240.812 391.674 248.422 396.241 257.396C400.87 266.561 408.037 273.537 417.899 278.452C421.228 280.133 428.997 282.542 433.247 283.24C443.172 284.889 450.212 285.174 480.431 285.174L505.863 285.174L505.863 270.271L505.863 255.367L487.408 255.367C462.42 255.367 454.017 254.891 445.328 253.115C439.113 251.847 435.657 250.198 432.454 246.964C428.744 243.253 427 238.846 426.302 231.584C425.319 221.532 425.224 215.919 425.097 165.849L424.97 114.573L406.927 114.573L388.852 114.573L388.852 115.429Z" fill="#2b457e" fill-rule="nonzero" opacity="1" stroke="none"/>
<path d="M584.822 114.795C584.219 114.827 582.063 115.049 580.065 115.239C559.834 117.078 543.947 124.213 533.578 136.041C519.974 151.611 513.061 177.328 514.425 207.389C515.725 236.024 522.701 254.923 536.907 268.463C543.598 274.773 551.114 278.928 561.832 282.099C563.925 282.733 569.854 283.843 574.357 284.477C577.465 284.889 583.648 284.984 615.517 285.079L652.999 285.206L652.999 270.302L652.999 255.367L626.774 255.367C600.36 255.367 592.464 255.145 587.2 254.257C573.564 251.942 566.208 247.059 561.388 237.165C557.519 229.206 555.49 220.01 554.697 206.692C553.587 188.014 555.521 172.286 559.992 163.217C561.483 160.173 564.686 156.304 567.666 153.862C574.357 148.408 582.317 145.586 593.352 144.73C595.92 144.508 608.795 144.381 625.316 144.381L652.999 144.381L652.999 129.477L652.999 114.573L619.481 114.637C601.026 114.637 585.424 114.732 584.822 114.795Z" fill="#2b457e" fill-rule="nonzero" opacity="1" stroke="none"/>
</g>
<path d="M202.322 102.745L338.294 85.3335L342.228 121.437L206.256 138.848L202.322 102.745Z" fill="#00a3e4" fill-rule="nonzero" opacity="1" stroke="none"/>
<path d="M212.625 183.79L301.96 171.044L306.525 207.539L217.19 220.285L212.625 183.79Z" fill="#00a3e4" fill-rule="nonzero" opacity="1" stroke="none"/>
<path d="M222.232 268.022L358.997 250.349L362.954 286.994L226.188 304.666L222.232 268.022Z" fill="#00a3e4" fill-rule="nonzero" opacity="1" stroke="none"/>
</g>
</g>
</svg>
