<?xml version="1.0" encoding="UTF-8" standalone="no"?>
<!DOCTYPE svg PUBLIC "-//W3C//DTD SVG 1.1//EN" "http://www.w3.org/Graphics/SVG/1.1/DTD/svg11.dtd">
<!-- Created with Vectornator (http://vectornator.io/) -->
<svg height="100%" stroke-miterlimit="10" style="fill-rule:nonzero;clip-rule:evenodd;stroke-linecap:round;stroke-linejoin:round;" version="1.1" viewBox="0 0 1024 250" width="100%" xml:space="preserve" xmlns="http://www.w3.org/2000/svg" xmlns:xlink="http://www.w3.org/1999/xlink">
<defs>
<clipPath id="TextBounds">
<rect height="72.4324" width="883.016" x="45.58" y="177.568"/>
</clipPath>
<clipPath id="TextBounds_2">
<rect height="175" width="310" x="668.423" y="2.58613"/>
</clipPath>
</defs>
<g id="Слой-1">
<g opacity="1">
<g fill="#00a3e4" opacity="1" stroke="none">
<path clip-path="url(#TextBounds)" d="M64.0028 234.562L72.3035 203.346L72.5373 203.346L80.838 234.562L85.6605 234.562L96.5917 194.666L90.4246 194.666L83.1762 226.378L82.8839 226.378L75.0509 194.666L69.7899 194.666L61.9861 226.378L61.6938 226.378L54.4454 194.666L48.2491 194.666L59.2095 234.562L64.0028 234.562Z"/>
<path clip-path="url(#TextBounds)" d="M113.602 235.058C121.377 235.058 125.089 230.236 125.556 226.962L120.12 226.962C119.594 228.862 117.168 230.587 113.573 230.587C108.458 230.587 105.711 226.875 105.711 222.111L105.711 220.561L125.965 220.561L125.965 216.85C125.965 208.578 120.646 203.317 113.193 203.317C105.828 203.317 100.45 208.49 100.45 216.85L100.45 221.526C100.45 229.827 105.331 235.058 113.602 235.058ZM105.711 216.733L105.711 216.236C105.711 211.121 108.721 207.76 113.222 207.76C117.723 207.76 120.704 211.121 120.704 216.236L120.704 216.733L105.711 216.733Z"/>
<path clip-path="url(#TextBounds)" d="M149.961 203.902L145.227 203.902L145.227 208.198L149.932 208.198L149.932 225.939C149.932 232.019 151.51 234.825 158.817 234.825C159.986 234.825 162.149 234.678 162.588 234.562L162.588 230.324C162.091 230.382 160.922 230.47 160.162 230.47C156.421 230.47 155.193 229.534 155.193 225.91L155.193 208.198L162.149 208.198L162.149 203.902L155.193 203.902L155.193 196.186L149.961 196.186L149.961 203.902Z"/>
<path clip-path="url(#TextBounds)" d="M171.239 234.562L176.559 234.562L176.559 215.564C176.559 211.384 179.248 208.14 184.655 208.14C185.59 208.14 186.642 208.198 187.139 208.315L187.139 203.493C186.525 203.405 185.882 203.346 185.21 203.346C179.774 203.346 177.552 206.532 176.792 208.549L176.529 208.549L176.529 203.814L171.239 203.814L171.239 234.562Z"/>
<path clip-path="url(#TextBounds)" d="M202.454 235.058C206.985 235.058 209.761 232.954 211.252 230.47L211.486 230.47L211.486 234.562L216.571 234.562L216.571 213.576C216.571 206.035 211.339 203.317 204.997 203.317C198.129 203.317 194.037 206.24 193.569 211.442L198.684 211.442C199.298 209.309 200.934 207.789 204.822 207.789C208.767 207.789 211.252 209.601 211.252 213.547L211.252 216.587L203.214 216.587C196.141 216.587 192.4 220.24 192.4 225.618C192.4 231.317 196.492 235.058 202.454 235.058ZM203.916 230.616C200.73 230.616 197.807 229.008 197.807 225.443C197.807 222.695 199.502 220.62 203.653 220.62L211.252 220.62L211.252 224.04C211.252 227.81 208.066 230.616 203.916 230.616Z"/>
<path clip-path="url(#TextBounds)" d="M237.235 203.346C230.074 203.346 225.31 208.374 225.31 216.207L225.31 222.169C225.31 230.002 229.958 235 237.118 235C241.619 235 245.448 232.779 246.354 229.651L246.617 229.651L246.617 234.562L251.703 234.562L251.703 192.561L246.413 192.561L246.413 208.374L246.15 208.374C244.922 205.246 241.561 203.346 237.235 203.346ZM238.317 207.877C242.993 207.877 246.413 211.326 246.413 216.207L246.413 221.526C246.413 227.05 243.285 230.47 238.463 230.47C233.582 230.47 230.63 226.992 230.63 221.029L230.63 217.288C230.63 211.384 233.523 207.877 238.317 207.877Z"/>
<path clip-path="url(#TextBounds)" d="M273.857 235.058C281.632 235.058 285.344 230.236 285.812 226.962L280.375 226.962C279.849 228.862 277.423 230.587 273.828 230.587C268.713 230.587 265.966 226.875 265.966 222.111L265.966 220.561L286.221 220.561L286.221 216.85C286.221 208.578 280.901 203.317 273.448 203.317C266.083 203.317 260.705 208.49 260.705 216.85L260.705 221.526C260.705 229.827 265.586 235.058 273.857 235.058ZM265.966 216.733L265.966 216.236C265.966 211.121 268.976 207.76 273.478 207.76C277.979 207.76 280.96 211.121 280.96 216.236L280.96 216.733L265.966 216.733Z"/>
<path clip-path="url(#TextBounds)" d="M333.073 203.814L327.461 203.814L319.306 229.388L319.073 229.388L310.947 203.814L305.073 203.814L316.354 234.971L316.033 236.111C315.098 239.589 313.315 240.962 309.866 240.962C309.252 240.962 308.083 240.875 307.615 240.816L307.615 245.083C308.375 245.259 309.72 245.347 310.655 245.347C316.004 245.347 319.102 242.833 321.557 236.286L322.2 234.62C322.2 234.562 332.576 205.422 333.073 203.814Z"/>
<path clip-path="url(#TextBounds)" d="M351.925 203.317C344.238 203.317 338.626 208.607 338.626 216.908L338.626 221.438C338.626 230.207 344.15 235.058 351.925 235.058C359.553 235.058 365.194 230.119 365.194 221.438L365.194 216.879C365.194 208.315 359.553 203.317 351.925 203.317ZM351.954 207.818C356.893 207.818 359.874 211.735 359.874 217.346L359.874 221.058C359.874 226.758 357.039 230.587 351.954 230.587C346.81 230.587 343.916 226.758 343.916 221.058L343.916 217.346C343.916 211.735 347.014 207.818 351.954 207.818Z"/>
<path clip-path="url(#TextBounds)" d="M399.04 203.814L393.749 203.814L393.749 223.192C393.749 227.138 390.33 230.44 385.829 230.44C382.175 230.44 379.136 228.833 379.136 223.718L379.136 203.814L373.845 203.814L373.845 225.15C373.845 232.282 378.2 235.058 384.367 235.058C389.745 235.058 392.639 231.96 393.516 229.447L393.808 229.447L393.808 234.562L399.04 234.562L399.04 203.814Z"/>
<path clip-path="url(#TextBounds)" d="M409.912 234.562L415.232 234.562L415.232 215.564C415.232 211.384 417.921 208.14 423.328 208.14C424.263 208.14 425.315 208.198 425.812 208.315L425.812 203.493C425.198 203.405 424.555 203.346 423.883 203.346C418.447 203.346 416.225 206.532 415.466 208.549L415.202 208.549L415.202 203.814L409.912 203.814L409.912 234.562Z"/>
<path clip-path="url(#TextBounds)" d="M446.418 234.562L451.708 234.562L451.708 217.434C451.708 212.115 454.338 207.935 459.745 207.935C463.925 207.935 466.409 210.419 466.409 215.242L466.409 234.562L471.7 234.562L471.7 213.576C471.7 206.678 467.462 203.317 461.265 203.317C454.835 203.317 452.702 206.971 451.942 209.397L451.649 209.397L451.649 203.814L446.418 203.814L446.418 234.562Z"/>
<path clip-path="url(#TextBounds)" d="M493.62 235.058C501.395 235.058 505.107 230.236 505.574 226.962L500.138 226.962C499.612 228.862 497.186 230.587 493.591 230.587C488.476 230.587 485.729 226.875 485.729 222.111L485.729 220.561L505.984 220.561L505.984 216.85C505.984 208.578 500.664 203.317 493.211 203.317C485.846 203.317 480.468 208.49 480.468 216.85L480.468 221.526C480.468 229.827 485.349 235.058 493.62 235.058ZM485.729 216.733L485.729 216.236C485.729 211.121 488.739 207.76 493.24 207.76C497.741 207.76 500.723 211.121 500.723 216.236L500.723 216.733L485.729 216.733Z"/>
<path clip-path="url(#TextBounds)" d="M526.385 235.058C534.159 235.058 537.871 230.236 538.339 226.962L532.902 226.962C532.376 228.862 529.95 230.587 526.355 230.587C521.24 230.587 518.493 226.875 518.493 222.111L518.493 220.561L538.748 220.561L538.748 216.85C538.748 208.578 533.428 203.317 525.975 203.317C518.61 203.317 513.232 208.49 513.232 216.85L513.232 221.526C513.232 229.827 518.113 235.058 526.385 235.058ZM518.493 216.733L518.493 216.236C518.493 211.121 521.503 207.76 526.005 207.76C530.506 207.76 533.487 211.121 533.487 216.236L533.487 216.733L518.493 216.733Z"/>
<path clip-path="url(#TextBounds)" d="M557.921 203.346C550.76 203.346 545.996 208.374 545.996 216.207L545.996 222.169C545.996 230.002 550.643 235 557.804 235C562.305 235 566.134 232.779 567.04 229.651L567.303 229.651L567.303 234.562L572.389 234.562L572.389 192.561L567.099 192.561L567.099 208.374L566.836 208.374C565.608 205.246 562.247 203.346 557.921 203.346ZM559.003 207.877C563.679 207.877 567.099 211.326 567.099 216.207L567.099 221.526C567.099 227.05 563.971 230.47 559.149 230.47C554.268 230.47 551.316 226.992 551.316 221.029L551.316 217.288C551.316 211.384 554.209 207.877 559.003 207.877Z"/>
<path clip-path="url(#TextBounds)" d="M581.42 212.641C581.42 218.691 586.067 220.006 591.796 221.175C596.063 222.023 599.483 222.666 599.483 226.086C599.483 228.745 597.495 230.937 592.644 230.937C588.347 230.937 586.447 229.213 586.038 226.495L580.865 226.495C580.865 231.989 585.571 235.058 592.41 235.058C599.775 235.058 604.685 231.58 604.685 225.472C604.685 219.48 599.921 217.873 594.163 216.879C590.685 216.236 586.535 215.768 586.535 212.115C586.535 209.133 589.107 207.467 592.702 207.467C596.823 207.467 598.811 209.776 598.986 211.91L603.896 211.91C603.896 206.737 599.512 203.317 592.877 203.317C586.886 203.317 581.42 206.123 581.42 212.641Z"/>
<path clip-path="url(#TextBounds)" d="M638.502 235.058C646.276 235.058 649.988 230.236 650.456 226.962L645.02 226.962C644.494 228.862 642.068 230.587 638.473 230.587C633.358 230.587 630.61 226.875 630.61 222.111L630.61 220.561L650.865 220.561L650.865 216.85C650.865 208.578 645.546 203.317 638.093 203.317C630.727 203.317 625.349 208.49 625.349 216.85L625.349 221.526C625.349 229.827 630.23 235.058 638.502 235.058ZM630.61 216.733L630.61 216.236C630.61 211.121 633.621 207.76 638.122 207.76C642.623 207.76 645.604 211.121 645.604 216.236L645.604 216.733L630.61 216.733Z"/>
<path clip-path="url(#TextBounds)" d="M662.235 234.562L667.525 234.562L667.525 208.198L674.598 208.198L674.598 203.902L667.466 203.902L667.466 201.242C667.466 197.589 669.016 196.536 672.64 196.536C673.4 196.536 674.92 196.595 675.387 196.653L675.387 192.386C674.773 192.328 673.254 192.211 671.88 192.211C665.011 192.211 662.235 194.929 662.235 200.833L662.235 203.902L657.061 203.902L657.061 208.198L662.235 208.198L662.235 234.562Z"/>
<path clip-path="url(#TextBounds)" d="M685.675 234.562L690.965 234.562L690.965 208.198L698.039 208.198L698.039 203.902L690.907 203.902L690.907 201.242C690.907 197.589 692.456 196.536 696.08 196.536C696.84 196.536 698.36 196.595 698.828 196.653L698.828 192.386C698.214 192.328 696.694 192.211 695.32 192.211C688.452 192.211 685.675 194.929 685.675 200.833L685.675 203.902L680.502 203.902L680.502 208.198L685.675 208.198L685.675 234.562Z"/>
<path clip-path="url(#TextBounds)" d="M706.105 194.344C706.105 196.449 707.713 197.968 709.817 197.968C712.039 197.968 713.646 196.449 713.646 194.344C713.646 192.211 712.039 190.691 709.817 190.691C707.713 190.691 706.105 192.211 706.105 194.344ZM707.216 234.562L712.506 234.562L712.506 203.814L707.216 203.814L707.216 234.562Z"/>
<path clip-path="url(#TextBounds)" d="M722.151 221.643C722.151 229.885 727.062 235.058 734.982 235.058C743.108 235.058 746.82 230.557 746.995 226.027L741.851 226.027C741.296 228.365 739.6 230.44 735.07 230.44C730.335 230.44 727.442 227.05 727.442 221.701L727.442 216.791C727.442 211.413 730.043 207.935 735.07 207.935C739.863 207.935 741.296 210.887 741.617 212.699L746.79 212.699C746.644 208.052 742.669 203.317 734.982 203.317C727.091 203.317 722.151 208.549 722.151 216.616L722.151 221.643Z"/>
<path clip-path="url(#TextBounds)" d="M754.974 194.344C754.974 196.449 756.582 197.968 758.686 197.968C760.907 197.968 762.515 196.449 762.515 194.344C762.515 192.211 760.907 190.691 758.686 190.691C756.582 190.691 754.974 192.211 754.974 194.344ZM756.085 234.562L761.375 234.562L761.375 203.814L756.085 203.814L756.085 234.562Z"/>
<path clip-path="url(#TextBounds)" d="M784.173 235.058C791.947 235.058 795.659 230.236 796.127 226.962L790.69 226.962C790.164 228.862 787.738 230.587 784.143 230.587C779.028 230.587 776.281 226.875 776.281 222.111L776.281 220.561L796.536 220.561L796.536 216.85C796.536 208.578 791.216 203.317 783.763 203.317C776.398 203.317 771.02 208.49 771.02 216.85L771.02 221.526C771.02 229.827 775.901 235.058 784.173 235.058ZM776.281 216.733L776.281 216.236C776.281 211.121 779.292 207.76 783.793 207.76C788.294 207.76 791.275 211.121 791.275 216.236L791.275 216.733L776.281 216.733Z"/>
<path clip-path="url(#TextBounds)" d="M805.275 234.562L810.565 234.562L810.565 217.434C810.565 212.115 813.196 207.935 818.603 207.935C822.782 207.935 825.267 210.419 825.267 215.242L825.267 234.562L830.557 234.562L830.557 213.576C830.557 206.678 826.319 203.317 820.123 203.317C813.692 203.317 811.559 206.971 810.799 209.397L810.507 209.397L810.507 203.814L805.275 203.814L805.275 234.562Z"/>
<path clip-path="url(#TextBounds)" d="M842.482 203.902L837.747 203.902L837.747 208.198L842.452 208.198L842.452 225.939C842.452 232.019 844.031 234.825 851.338 234.825C852.507 234.825 854.67 234.678 855.108 234.562L855.108 230.324C854.611 230.382 853.442 230.47 852.682 230.47C848.941 230.47 847.713 229.534 847.713 225.91L847.713 208.198L854.67 208.198L854.67 203.902L847.713 203.902L847.713 196.186L842.482 196.186L842.482 203.902Z"/>
<path clip-path="url(#TextBounds)" d="M863.467 234.562L868.757 234.562L868.757 192.561L863.467 192.561L863.467 234.562Z"/>
<path clip-path="url(#TextBounds)" d="M903.977 203.814L898.365 203.814L890.21 229.388L889.977 229.388L881.851 203.814L875.977 203.814L887.259 234.971L886.937 236.111C886.002 239.589 884.219 240.962 880.77 240.962C880.156 240.962 878.987 240.875 878.519 240.816L878.519 245.083C879.279 245.259 880.624 245.347 881.559 245.347C886.908 245.347 890.006 242.833 892.461 236.286L893.104 234.62C893.104 234.562 903.48 205.422 903.977 203.814Z"/>
</g>
<g fill="#2b457e" opacity="1" stroke="none">
<path clip-path="url(#TextBounds_2)" d="M717.21 49.7339L717.21 44.9599L696.755 44.9599L696.755 50.4657L710.938 50.4657L710.938 51.3717C710.938 59.8046 704.805 65.5892 695.884 65.5892C685.639 65.5892 679.297 57.7487 679.297 45.0993C679.297 32.6589 685.535 25.2017 695.884 25.2017C702.958 25.2017 708.22 29.0697 710.311 35.8648L716.897 35.8648C715.015 25.8638 706.756 19.4171 695.884 19.4171C681.806 19.4171 672.85 29.4182 672.85 45.1341C672.85 61.1288 681.841 71.3738 695.884 71.3738C709.3 71.3738 717.21 63.3241 717.21 49.7339Z"/>
<path clip-path="url(#TextBounds_2)" d="M756.378 64.8923L731.498 64.8923L731.498 47.6082L755.089 47.6082L755.089 42.0327L731.498 42.0327L731.498 25.8987L756.378 25.8987L756.378 20.2535L725.225 20.2535L725.225 70.5374L756.378 70.5374L756.378 64.8923Z"/>
<path clip-path="url(#TextBounds_2)" d="M770.84 70.5374L770.84 31.1954L771.153 31.1954L798.682 70.5374L804.781 70.5374L804.781 20.2535L798.578 20.2535L798.578 59.7349L798.264 59.7349L770.735 20.2535L764.637 20.2535L764.637 70.5374L770.84 70.5374Z"/>
<path clip-path="url(#TextBounds_2)" d="M845.691 64.8923L820.81 64.8923L820.81 47.6082L844.401 47.6082L844.401 42.0327L820.81 42.0327L820.81 25.8987L845.691 25.8987L845.691 20.2535L814.538 20.2535L814.538 70.5374L845.691 70.5374L845.691 64.8923Z"/>
<path clip-path="url(#TextBounds_2)" d="M860.222 25.829L872.314 25.829C878.795 25.829 882.698 29.4182 882.698 35.4467C882.698 41.6146 879.039 45.0993 872.592 45.0993L860.222 45.0993L860.222 25.829ZM860.222 50.6399L872.592 50.6399L872.592 50.6399L883.36 70.5374L890.713 70.5374L879.074 49.6642C885.381 47.6779 889.18 42.2418 889.18 35.2376C889.18 26.1774 882.837 20.2535 873.15 20.2535L853.949 20.2535L853.949 70.5374L860.222 70.5374L860.222 50.6399Z"/>
<path clip-path="url(#TextBounds_2)" d="M929.741 70.5374L936.327 70.5374L917.789 20.2535L911.586 20.2535L893.048 70.5374L899.634 70.5374L904.686 56.1457L924.688 56.1457L929.741 70.5374ZM914.583 27.8849L914.792 27.8849L922.842 50.8141L906.533 50.8141L914.583 27.8849Z"/>
<path clip-path="url(#TextBounds_2)" d="M972.603 64.8923L948.349 64.8923L948.349 20.2535L942.077 20.2535L942.077 70.5374L972.603 70.5374L972.603 64.8923Z"/>
<path clip-path="url(#TextBounds_2)" d="M694.142 155.703L694.142 111.064L710.346 111.064L710.346 105.419L671.666 105.419L671.666 111.064L687.869 111.064L687.869 155.703L694.142 155.703Z"/>
<path clip-path="url(#TextBounds_2)" d="M723.239 110.995L735.331 110.995C741.812 110.995 745.715 114.584 745.715 120.612C745.715 126.78 742.056 130.265 735.61 130.265L723.239 130.265L723.239 110.995ZM723.239 135.806L735.61 135.806L735.61 135.806L746.377 155.703L753.73 155.703L742.091 134.83C748.398 132.844 752.197 127.407 752.197 120.403C752.197 111.343 745.855 105.419 736.167 105.419L716.967 105.419L716.967 155.703L723.239 155.703L723.239 135.806Z"/>
<path clip-path="url(#TextBounds_2)" d="M792.758 155.703L799.344 155.703L780.806 105.419L774.603 105.419L756.065 155.703L762.651 155.703L767.704 141.311L787.706 141.311L792.758 155.703ZM777.6 113.051L777.809 113.051L785.859 135.98L769.55 135.98L777.6 113.051Z"/>
<path clip-path="url(#TextBounds_2)" d="M805.094 105.419L805.094 155.703L822.343 155.703C837.293 155.703 846.074 146.399 846.074 130.544C846.074 114.723 837.258 105.419 822.343 105.419L805.094 105.419ZM811.367 111.064L821.925 111.064C833.355 111.064 839.662 118.034 839.662 130.613C839.662 143.089 833.32 150.058 821.925 150.058L811.367 150.058L811.367 111.064Z"/>
<path clip-path="url(#TextBounds_2)" d="M860.117 155.703L860.117 105.419L853.845 105.419L853.845 155.703L860.117 155.703Z"/>
<path clip-path="url(#TextBounds_2)" d="M876.077 155.703L876.077 116.361L876.391 116.361L903.92 155.703L910.018 155.703L910.018 105.419L903.815 105.419L903.815 144.901L903.502 144.901L875.973 105.419L869.874 105.419L869.874 155.703L876.077 155.703Z"/>
<path clip-path="url(#TextBounds_2)" d="M962.184 134.9L962.184 130.126L941.729 130.126L941.729 135.631L955.911 135.631L955.911 136.537C955.911 144.97 949.778 150.755 940.857 150.755C930.612 150.755 924.27 142.914 924.27 130.265C924.27 117.825 930.508 110.367 940.857 110.367C947.931 110.367 953.193 114.235 955.284 121.03L961.87 121.03C959.988 111.029 951.73 104.583 940.857 104.583C926.779 104.583 917.824 114.584 917.824 130.3C917.824 146.294 926.814 156.539 940.857 156.539C954.273 156.539 962.184 148.49 962.184 134.9Z"/>
</g>
<g opacity="1">
<g opacity="1">
<path d="M582.366 27.6484C581.851 27.6953 580.211 27.8592 578.735 27.9998C569.153 28.89 559.83 31.5607 552.966 35.3558C544.907 39.8303 539.167 45.8275 535.044 54.0971C532.748 58.7121 531.647 61.6873 530.382 66.7709C528.508 74.2206 527.665 81.9045 527.665 91.5563C527.665 106.011 529.867 116.529 535.068 127.094C539.355 135.786 545.235 141.877 553.926 146.585C560.509 150.146 568.989 152.817 577.798 154.105C584.404 155.066 596.563 155.206 603.122 154.387C612.68 153.215 621.465 150.381 627.861 146.445C634.982 142.017 640.886 135.622 644.751 128.078C648.289 121.168 650.772 111.914 651.732 102.122C652.271 96.5461 652.084 85.0202 651.381 79.515C649.179 62.4135 644.212 50.7236 635.521 42.2198C628.423 35.2855 619.896 31.3967 605.793 28.6792C601.974 27.9529 598.437 27.6953 591.034 27.625C586.794 27.5781 582.881 27.6015 582.366 27.6484ZM596.188 48.9432C606.074 50.3254 613.266 55.1278 617.248 63.0461C620.528 69.5821 622.051 77.0786 622.449 88.7685C622.847 100.341 620.95 111.492 617.365 118.708C612.961 127.54 606.121 132.295 595.836 133.654C592.58 134.099 586.395 134.029 583.303 133.537C569.528 131.335 562.125 123.885 558.939 109.033C556.292 96.5461 556.901 77.6174 560.275 67.4971C561.844 62.7649 563.554 59.8132 566.389 56.9551C569.153 54.1674 572.41 52.0824 576.158 50.7002C579.602 49.4586 581.71 49.0135 587.051 48.4981C588.621 48.3341 593.681 48.5918 596.188 48.9432Z" fill="#2b457e" fill-rule="nonzero" opacity="1" stroke="none"/>
<path d="M80.3366 28.4683C68.881 29.0306 59.8851 32.9897 54.4736 39.8068C53.8645 40.5799 52.6931 42.2901 51.8966 43.6254C46.7896 52.059 44.7281 61.1016 45.8994 70.074C46.5554 74.9234 47.6096 78.2734 50.0225 83.0993C51.9903 87.0349 53.841 89.5182 57.2145 92.7276C60.6113 95.9371 66.3509 98.6077 72.6292 99.8727C78.5796 101.091 79.2121 101.114 99.3122 101.302C119.529 101.489 120.537 101.536 124.379 102.707C129.345 104.23 133.257 108.564 134.218 113.577C135.436 119.903 133.538 125.408 129.064 128.594C126.792 130.21 124.566 130.936 119.459 131.663C116.929 132.037 113.462 132.084 84.1551 132.155L51.6389 132.248L51.6389 143.259L51.6389 154.246L87.552 154.246C108.331 154.246 125.128 154.152 127.424 154.012C136.373 153.496 140.918 152.606 145.416 150.521C155.208 146.023 162.096 135.95 164.11 123.206C164.298 122.151 164.415 119.387 164.415 116.88C164.391 109.314 163.079 103.551 159.729 96.4993C155.794 88.1828 147.29 82.3496 136.045 80.2412C130.774 79.2339 126.698 79.0464 111.025 79.0464C96.1027 79.0464 91.4877 78.8825 87.5286 78.2031C79.0013 76.7741 75.2998 72.6275 75.2998 64.4985C75.2998 57.33 78.1345 53.0195 83.874 51.5201C87.8331 50.4894 96.7821 50.2317 129.369 50.2317L157.293 50.2317L157.293 39.2212L157.293 28.2106L120.584 28.2575C100.366 28.2575 82.281 28.3746 80.3366 28.4683Z" fill="#2b457e" fill-rule="nonzero" opacity="1" stroke="none"/>
<path d="M324.322 28.8432C324.251 61.8981 324.392 105.987 324.556 109.384C325.212 121.472 326.407 127.094 329.78 133.724C333.2 140.495 338.495 145.648 345.78 149.28C348.24 150.521 353.98 152.302 357.119 152.817C364.451 154.035 369.652 154.246 391.978 154.246L410.766 154.246L410.766 143.235L410.766 132.225L397.132 132.225C378.671 132.225 372.463 131.874 366.044 130.562C361.453 129.625 358.899 128.406 356.533 126.017C353.792 123.276 352.504 120.02 351.989 114.655C351.262 107.229 351.192 103.082 351.098 66.0915L351.005 28.2106L337.675 28.2106L324.322 28.2106L324.322 28.8432Z" fill="#2b457e" fill-rule="nonzero" opacity="1" stroke="none"/>
<path d="M469.098 28.3746C468.653 28.3981 467.06 28.562 465.584 28.7026C450.638 30.0613 438.901 35.3323 431.241 44.0705C421.191 55.573 416.084 74.572 417.091 96.7804C418.052 117.935 423.205 131.897 433.701 141.9C438.644 146.562 444.196 149.631 452.114 151.974C453.66 152.442 458.041 153.262 461.367 153.731C463.663 154.035 468.231 154.105 491.775 154.176L519.466 154.269L519.466 143.259L519.466 132.225L500.092 132.225C480.577 132.225 474.744 132.061 470.855 131.405C460.782 129.695 455.347 126.087 451.786 118.778C448.928 112.898 447.429 106.104 446.843 96.265C446.023 82.4667 447.452 70.8471 450.755 64.1471C451.856 61.8981 454.222 59.0401 456.424 57.2362C461.367 53.2069 467.248 51.1219 475.4 50.4894C477.298 50.3254 486.809 50.2317 499.014 50.2317L519.466 50.2317L519.466 39.2212L519.466 28.2106L494.704 28.2575C481.069 28.2575 469.543 28.3278 469.098 28.3746Z" fill="#2b457e" fill-rule="nonzero" opacity="1" stroke="none"/>
</g>
<path d="M186.519 19.4721L286.971 6.60916L289.877 33.2814L189.425 46.1443L186.519 19.4721Z" fill="#00a3e4" fill-rule="nonzero" opacity="1" stroke="none"/>
<path d="M194.13 79.3462L260.128 69.9294L263.501 96.8909L197.503 106.308L194.13 79.3462Z" fill="#00a3e4" fill-rule="nonzero" opacity="1" stroke="none"/>
<path d="M201.227 141.574L302.265 128.518L305.189 155.59L204.15 168.646L201.227 141.574Z" fill="#00a3e4" fill-rule="nonzero" opacity="1" stroke="none"/>
</g>
</g>
</g>
</svg>
